<?xml version="1.0" encoding="utf-8"?>
<!-- Generator: Adobe Illustrator 14.0.0, SVG Export Plug-In . SVG Version: 6.00 Build 43363)  -->
<!DOCTYPE svg PUBLIC "-//W3C//DTD SVG 1.1//EN" "http://www.w3.org/Graphics/SVG/1.1/DTD/svg11.dtd">
<svg version="1.1" id="Layer_1" xmlns="http://www.w3.org/2000/svg" xmlns:xlink="http://www.w3.org/1999/xlink" x="0px" y="0px"
	 width="324.623px" height="85.336px" viewBox="0 0 324.623 85.336" enable-background="new 0 0 324.623 85.336"
	 xml:space="preserve">
<g>
	<path fill="#ED5A48" d="M102.323,10.252C98.256,6.04,92.849,3.72,87.098,3.72c-5.752,0-11.16,2.319-15.228,6.532L56.755,25.908
		l6.527,6.759l15.114-15.654c2.325-2.407,5.412-3.734,8.701-3.734c3.284,0,6.375,1.327,8.699,3.734
		c4.797,4.968,4.795,13.051-0.002,18.02L78.366,53.088c1.162,4.39,1.183,9.032,0.077,13.437l23.879-24.732
		c4.065-4.212,6.306-9.812,6.306-15.77C108.628,20.064,106.388,14.465,102.323,10.252z"/>
	<path fill="#ED5A48" d="M42.561,63.724c-0.356-1.197-0.544-2.459-0.544-3.753c0-3.405,1.282-6.603,3.606-9.012l6.24-6.461
		l-6.527-6.761l-4.353,4.508c-0.561,0.719-1.149,1.419-1.789,2.082c-0.377,0.391-0.781,0.744-1.179,1.106
		c-3.37,4.045-5.225,9.139-5.227,14.537c0,3.145,0.642,6.181,1.83,8.977c1.196-3.073,4.098-5.247,7.488-5.247
		C42.258,63.7,42.41,63.718,42.561,63.724z"/>
	<path fill="#ED5A48" d="M36.746,10.254C32.679,6.039,27.272,3.72,21.521,3.72c-5.75,0-11.159,2.318-15.224,6.53
		c-8.396,8.695-8.396,22.846,0,31.542c4.064,4.213,9.475,6.532,15.224,6.532c5.752,0,11.158-2.32,15.225-6.532
		c3.158-3.269,5.213-7.377,5.977-11.834l20.274,21.001c4.796,4.969,4.796,13.053,0,18.021c-2.322,2.409-5.412,3.733-8.697,3.733
		c-3.279,0-6.363-1.321-8.684-3.718c-0.848-1.037-2.098-1.709-3.509-1.709c-2.549,0-4.616,2.142-4.616,4.78
		c0,1.456,0.59,2.796,1.582,3.673c4.067,4.213,9.474,6.532,15.225,6.532h0.003c5.75,0,11.158-2.318,15.224-6.532
		c8.397-8.694,8.397-22.847,0-31.541L36.746,10.254z M30.221,35.032c-2.323,2.409-5.412,3.734-8.7,3.734
		c-3.286,0-6.375-1.326-8.697-3.734c-4.799-4.968-4.799-13.053,0-18.02c2.323-2.408,5.41-3.733,8.697-3.733
		c3.287,0,6.376,1.325,8.7,3.734c2.325,2.407,3.603,5.605,3.603,9.01C33.824,29.426,32.545,32.625,30.221,35.032z"/>
</g>
<text transform="matrix(1 0 0 1 132.2168 33.6572)"><tspan x="0" y="0" fill="#918B88" font-family="'Dosis-Bold'" font-size="36.6762">EURODANCE</tspan><tspan x="0" y="44.012" fill="#918B88" font-family="'Dosis-Bold'" font-size="36.6762">.COM.BR</tspan></text>
</svg>
