<?xml version="1.0" encoding="utf-8"?>
<!-- Generator: Adobe Illustrator 14.0.0, SVG Export Plug-In . SVG Version: 6.00 Build 43363)  -->
<!DOCTYPE svg PUBLIC "-//W3C//DTD SVG 1.1//EN" "http://www.w3.org/Graphics/SVG/1.1/DTD/svg11.dtd">
<svg version="1.1" id="Layer_1" xmlns="http://www.w3.org/2000/svg" xmlns:xlink="http://www.w3.org/1999/xlink" x="0px" y="0px"
	 width="203.729px" height="53.529px" viewBox="0 0 203.729 53.529" enable-background="new 0 0 203.729 53.529"
	 xml:space="preserve">
<g>
	<path fill="#ED5A48" d="M63.569,6.228c-2.526-2.53-5.886-3.922-9.458-3.922c-3.574,0-6.933,1.393-9.46,3.922l-9.39,9.401
		l4.055,4.058l9.39-9.4c1.444-1.446,3.362-2.242,5.406-2.242c2.041,0,3.961,0.796,5.404,2.242c2.98,2.983,2.979,7.837-0.001,10.82
		L48.686,31.951c0.722,2.636,0.735,5.424,0.048,8.069l14.835-14.852c2.526-2.529,3.918-5.892,3.918-9.47
		C67.487,12.12,66.095,8.758,63.569,6.228z"/>
	<path fill="#ED5A48" d="M26.441,38.338c-0.221-0.719-0.338-1.477-0.338-2.254c0-2.045,0.796-3.965,2.24-5.412l3.877-3.88
		l-4.055-4.06l-2.705,2.707c-0.348,0.432-0.714,0.852-1.111,1.25c-0.234,0.235-0.485,0.447-0.732,0.665
		c-2.094,2.429-3.246,5.488-3.248,8.729c0,1.889,0.399,3.712,1.137,5.39c0.744-1.845,2.546-3.151,4.652-3.151
		C26.253,38.323,26.348,38.334,26.441,38.338z"/>
	<path fill="#ED5A48" d="M22.829,6.229c-2.526-2.531-5.886-3.923-9.459-3.923c-3.573,0-6.933,1.392-9.458,3.921
		c-5.216,5.222-5.216,13.719,0,18.941c2.525,2.53,5.886,3.922,9.458,3.922c3.574,0,6.933-1.393,9.459-3.922
		c1.962-1.963,3.239-4.43,3.713-7.106l12.595,12.611c2.98,2.984,2.98,7.838,0,10.822c-1.442,1.446-3.362,2.242-5.403,2.242
		c-2.037,0-3.953-0.793-5.395-2.232c-0.527-0.623-1.304-1.027-2.18-1.027c-1.584,0-2.868,1.286-2.868,2.871
		c0,0.875,0.367,1.679,0.982,2.206c2.527,2.53,5.886,3.923,9.458,3.923h0.002c3.572,0,6.932-1.392,9.458-3.922
		c5.216-5.221,5.216-13.719,0-18.94L22.829,6.229z M18.775,21.108c-1.443,1.446-3.362,2.243-5.405,2.243
		c-2.041,0-3.96-0.796-5.403-2.243c-2.981-2.983-2.981-7.838,0-10.821c1.443-1.446,3.361-2.242,5.403-2.242s3.962,0.796,5.405,2.242
		c1.444,1.445,2.238,3.366,2.238,5.41C21.014,17.742,20.22,19.663,18.775,21.108z"/>
</g>
<g>
	<path fill="#918B88" d="M83.509,19.38V5.087c0-0.279,0.128-0.5,0.387-0.661c0.258-0.161,0.562-0.242,0.911-0.242h8.112
		c0.304,0,0.536,0.125,0.695,0.374c0.16,0.25,0.239,0.536,0.239,0.859c0,0.352-0.083,0.653-0.25,0.903s-0.395,0.374-0.684,0.374
		h-6.448V11.1h3.463c0.289,0,0.516,0.114,0.684,0.341c0.167,0.228,0.25,0.495,0.25,0.803c0,0.279-0.08,0.533-0.239,0.76
		c-0.16,0.228-0.392,0.341-0.695,0.341h-3.463v4.427h6.448c0.289,0,0.517,0.125,0.684,0.375c0.167,0.25,0.25,0.551,0.25,0.903
		c0,0.323-0.08,0.61-0.239,0.859c-0.159,0.25-0.391,0.374-0.695,0.374h-8.112c-0.35,0-0.653-0.081-0.911-0.242
		C83.638,19.879,83.509,19.66,83.509,19.38z"/>
	<path fill="#918B88" d="M95.517,15.372V5.065c0-0.294,0.145-0.514,0.433-0.661c0.289-0.146,0.638-0.22,1.048-0.22
		s0.759,0.073,1.048,0.22c0.288,0.147,0.433,0.367,0.433,0.661v10.307c0,1.688,0.835,2.533,2.507,2.533
		c1.67,0,2.506-0.844,2.506-2.533V5.065c0-0.294,0.144-0.514,0.433-0.661c0.289-0.146,0.638-0.22,1.048-0.22s0.759,0.073,1.048,0.22
		c0.289,0.147,0.433,0.367,0.433,0.661v10.307c0,1.732-0.498,3.006-1.493,3.821c-0.995,0.815-2.321,1.222-3.976,1.222
		c-1.656,0-2.982-0.403-3.977-1.211C96.014,18.397,95.517,17.12,95.517,15.372z"/>
	<path fill="#918B88" d="M109.12,19.38V5.065c0-0.235,0.091-0.44,0.273-0.617c0.182-0.176,0.41-0.264,0.683-0.264h4.512
		c3.6,0,5.4,1.534,5.4,4.603c0,1.204-0.27,2.173-0.809,2.907c-0.54,0.734-1.265,1.233-2.176,1.498l2.984,5.352
		c0.076,0.088,0.114,0.206,0.114,0.352c0,0.367-0.197,0.708-0.592,1.024c-0.396,0.316-0.813,0.473-1.253,0.473
		c-0.441,0-0.782-0.227-1.025-0.682l-3.235-6.079h-1.914v5.749c0,0.279-0.145,0.499-0.433,0.661s-0.638,0.242-1.048,0.242
		c-0.396,0-0.741-0.081-1.037-0.242C109.268,19.879,109.12,19.66,109.12,19.38z M112.082,11.386h2.506
		c1.625,0,2.438-0.778,2.438-2.334c0-1.571-0.813-2.357-2.438-2.357h-2.506V11.386z"/>
	<path fill="#918B88" d="M121.925,15.372V9.228c0-1.748,0.482-3.025,1.447-3.833c0.964-0.808,2.259-1.211,3.885-1.211
		c1.625,0,2.924,0.403,3.896,1.211s1.458,2.085,1.458,3.833v6.145c0,1.748-0.486,3.025-1.458,3.832
		c-0.972,0.808-2.271,1.211-3.896,1.211c-1.626,0-2.921-0.403-3.885-1.211C122.407,18.397,121.925,17.12,121.925,15.372z
		 M124.887,15.372c0,1.688,0.79,2.533,2.37,2.533c1.595,0,2.392-0.844,2.392-2.533V9.228c0-1.688-0.797-2.533-2.392-2.533
		c-1.58,0-2.37,0.845-2.37,2.533V15.372z"/>
	<path fill="#918B88" d="M135.141,19.402V5.065c0-0.235,0.122-0.44,0.365-0.617c0.243-0.176,0.554-0.264,0.934-0.264h4.033
		c1.625,0,2.924,0.403,3.896,1.211s1.458,2.085,1.458,3.833v6.012c0,1.748-0.486,3.025-1.458,3.832
		c-0.972,0.808-2.271,1.211-3.896,1.211h-4.033c-0.38,0-0.691-0.088-0.934-0.264C135.262,19.843,135.141,19.637,135.141,19.402z
		 M138.103,17.772h2.37c1.595,0,2.392-0.844,2.392-2.533V9.228c0-1.688-0.797-2.533-2.392-2.533h-2.37V17.772z"/>
	<path fill="#918B88" d="M146.842,19.012c0-0.031,0.016-0.11,0.046-0.235l4.402-13.852c0.091-0.278,0.315-0.493,0.672-0.645
		s0.764-0.229,1.219-0.229s0.866,0.085,1.23,0.254c0.365,0.168,0.593,0.407,0.684,0.715l4.397,13.853
		c0.031,0.118,0.046,0.191,0.046,0.221c0,0.323-0.205,0.602-0.614,0.836c-0.411,0.235-0.829,0.353-1.255,0.353
		c-0.562,0-0.895-0.19-1.001-0.572l-0.866-2.929h-4.882l-0.849,2.931c-0.121,0.381-0.497,0.571-1.129,0.571
		c-0.497,0-0.971-0.122-1.422-0.365C147.068,19.675,146.842,19.373,146.842,19.012z M151.57,14.535h3.94l-1.982-6.761L151.57,14.535
		z"/>
	<path fill="#918B88" d="M161.457,19.38V5.087c0-0.294,0.145-0.518,0.433-0.672s0.638-0.231,1.048-0.231
		c0.547,0,0.964,0.095,1.253,0.286s0.607,0.602,0.958,1.233l4.397,8.215V5.065c0-0.294,0.144-0.514,0.433-0.661
		c0.288-0.146,0.638-0.22,1.048-0.22c0.41,0,0.759,0.073,1.047,0.22c0.289,0.147,0.433,0.367,0.433,0.661V19.38
		c0,0.279-0.148,0.499-0.444,0.661c-0.296,0.162-0.642,0.242-1.037,0.242c-0.805,0-1.375-0.301-1.709-0.903l-4.899-8.854v8.854
		c0,0.279-0.148,0.499-0.445,0.661c-0.296,0.162-0.642,0.242-1.037,0.242c-0.41,0-0.76-0.081-1.048-0.242
		S161.457,19.66,161.457,19.38z"/>
	<path fill="#918B88" d="M175.083,15.372V9.228c0-1.733,0.486-3.007,1.458-3.821c0.972-0.815,2.241-1.222,3.805-1.222
		c1.595,0,2.898,0.381,3.908,1.145s1.516,1.776,1.516,3.039c0,0.543-0.114,0.915-0.342,1.112c-0.228,0.198-0.608,0.297-1.139,0.297
		c-0.972,0-1.466-0.301-1.48-0.903c-0.016-0.19-0.034-0.356-0.058-0.496c-0.023-0.139-0.084-0.322-0.182-0.55
		c-0.099-0.228-0.224-0.418-0.376-0.572c-0.152-0.154-0.38-0.286-0.684-0.397c-0.304-0.11-0.661-0.165-1.071-0.165
		c-1.595,0-2.393,0.845-2.393,2.533v6.145c0,1.688,0.813,2.533,2.438,2.533c0.486,0,0.892-0.073,1.219-0.22
		c0.327-0.147,0.562-0.356,0.707-0.628c0.144-0.271,0.242-0.514,0.296-0.727c0.053-0.213,0.087-0.474,0.103-0.782
		c0.045-0.602,0.531-0.903,1.458-0.903c0.532,0,0.915,0.099,1.15,0.297c0.235,0.199,0.354,0.569,0.354,1.112
		c0,1.321-0.506,2.378-1.516,3.171s-2.32,1.189-3.93,1.189c-1.565,0-2.829-0.407-3.794-1.222
		C175.564,18.378,175.083,17.104,175.083,15.372z"/>
	<path fill="#918B88" d="M187.774,19.38V5.087c0-0.279,0.129-0.5,0.388-0.661c0.258-0.161,0.562-0.242,0.912-0.242h8.111
		c0.304,0,0.536,0.125,0.695,0.374c0.16,0.25,0.239,0.536,0.239,0.859c0,0.352-0.084,0.653-0.251,0.903
		c-0.168,0.25-0.396,0.374-0.684,0.374h-6.448V11.1h3.462c0.289,0,0.517,0.114,0.684,0.341s0.25,0.495,0.25,0.803
		c0,0.279-0.08,0.533-0.239,0.76c-0.159,0.228-0.391,0.341-0.695,0.341h-3.462v4.427h6.448c0.288,0,0.516,0.125,0.684,0.375
		c0.167,0.25,0.251,0.551,0.251,0.903c0,0.323-0.079,0.61-0.239,0.859c-0.159,0.25-0.392,0.374-0.695,0.374h-8.111
		c-0.35,0-0.653-0.081-0.912-0.242S187.774,19.66,187.774,19.38z"/>
	<path fill="#918B88" d="M83.208,46.404c-0.286-0.294-0.428-0.646-0.428-1.057s0.143-0.764,0.428-1.058
		c0.285-0.293,0.64-0.44,1.064-0.44c0.395,0,0.738,0.147,1.031,0.44c0.293,0.294,0.439,0.646,0.439,1.058
		c0,0.396-0.146,0.745-0.439,1.046c-0.292,0.301-0.636,0.451-1.031,0.451C83.848,46.844,83.493,46.698,83.208,46.404z"/>
	<path fill="#918B88" d="M87.701,41.801v-6.145c0-1.732,0.486-3.006,1.458-3.821c0.972-0.815,2.241-1.222,3.805-1.222
		c1.595,0,2.897,0.382,3.908,1.146c1.01,0.763,1.515,1.776,1.515,3.039c0,0.543-0.114,0.914-0.341,1.112
		c-0.228,0.198-0.608,0.297-1.14,0.297c-0.972,0-1.466-0.301-1.481-0.903c-0.016-0.191-0.034-0.356-0.057-0.496
		c-0.022-0.14-0.083-0.323-0.182-0.551c-0.099-0.227-0.224-0.418-0.376-0.572c-0.152-0.154-0.38-0.286-0.684-0.396
		s-0.661-0.165-1.071-0.165c-1.595,0-2.392,0.845-2.392,2.533v6.145c0,1.688,0.812,2.532,2.438,2.532
		c0.486,0,0.893-0.073,1.219-0.22c0.327-0.147,0.562-0.356,0.706-0.628s0.243-0.514,0.296-0.727
		c0.053-0.212,0.087-0.474,0.103-0.782c0.046-0.602,0.531-0.903,1.458-0.903c0.531,0,0.915,0.099,1.15,0.297
		c0.235,0.199,0.353,0.569,0.353,1.112c0,1.322-0.505,2.379-1.515,3.172c-1.01,0.792-2.321,1.189-3.931,1.189
		c-1.564,0-2.829-0.407-3.793-1.222C88.184,44.807,87.701,43.534,87.701,41.801z"/>
	<path fill="#918B88" d="M100.21,41.801v-6.145c0-1.748,0.482-3.024,1.447-3.833c0.965-0.807,2.26-1.211,3.885-1.211
		s2.924,0.404,3.896,1.211c0.973,0.808,1.458,2.085,1.458,3.833v6.145c0,1.747-0.486,3.024-1.458,3.832
		c-0.972,0.808-2.271,1.211-3.896,1.211s-2.92-0.403-3.885-1.211S100.21,43.548,100.21,41.801z M103.173,41.801
		c0,1.688,0.79,2.532,2.37,2.532c1.595,0,2.393-0.844,2.393-2.532v-6.145c0-1.688-0.798-2.533-2.393-2.533
		c-1.58,0-2.37,0.845-2.37,2.533V41.801z"/>
	<path fill="#918B88" d="M113.426,45.809V32.044c0-0.485,0.141-0.844,0.422-1.079c0.281-0.235,0.634-0.353,1.06-0.353
		c0.562,0,0.995,0.096,1.298,0.286c0.304,0.191,0.638,0.603,1.003,1.233l2.803,4.933l2.802-4.933
		c0.365-0.631,0.703-1.042,1.014-1.233c0.311-0.19,0.748-0.286,1.31-0.286c0.425,0,0.778,0.118,1.06,0.353s0.421,0.594,0.421,1.079
		v13.765c0,0.279-0.148,0.5-0.444,0.661c-0.296,0.162-0.642,0.243-1.037,0.243c-0.41,0-0.76-0.081-1.048-0.243
		c-0.289-0.161-0.433-0.381-0.433-0.661v-9.47l-2.666,4.581c-0.213,0.382-0.547,0.573-1.002,0.573c-0.441,0-0.768-0.191-0.979-0.573
		l-2.621-4.757v9.646c0,0.279-0.148,0.5-0.444,0.661c-0.296,0.162-0.642,0.243-1.037,0.243c-0.41,0-0.76-0.081-1.048-0.243
		C113.57,46.309,113.426,46.088,113.426,45.809z"/>
	<path fill="#918B88" d="M129.052,46.404c-0.285-0.294-0.428-0.646-0.428-1.057s0.143-0.764,0.428-1.058
		c0.285-0.293,0.64-0.44,1.064-0.44c0.395,0,0.738,0.147,1.031,0.44c0.292,0.294,0.439,0.646,0.439,1.058
		c0,0.396-0.146,0.745-0.439,1.046c-0.293,0.301-0.636,0.451-1.031,0.451C129.691,46.844,129.337,46.698,129.052,46.404z"/>
	<path fill="#918B88" d="M133.705,45.831V31.516c0-0.279,0.129-0.499,0.387-0.661c0.258-0.162,0.562-0.242,0.912-0.242h4.397
		c3.053,0,4.58,1.292,4.58,3.876c0,1.792-0.646,2.959-1.937,3.502c0.775,0.294,1.359,0.708,1.754,1.244
		c0.395,0.537,0.592,1.318,0.592,2.346v0.462c0,1.63-0.41,2.816-1.23,3.557c-0.82,0.742-1.93,1.112-3.327,1.112h-4.831
		c-0.38,0-0.692-0.088-0.935-0.265C133.827,46.272,133.705,46.066,133.705,45.831z M136.645,36.868h2.552
		c0.592,0,1.044-0.169,1.356-0.507c0.311-0.337,0.467-0.8,0.467-1.387c0-0.573-0.163-1.024-0.49-1.354
		c-0.327-0.331-0.779-0.496-1.356-0.496h-2.529V36.868z M136.645,44.202h2.575c1.473,0,2.21-0.8,2.21-2.4v-0.353
		c0-0.822-0.186-1.417-0.559-1.784c-0.372-0.367-0.922-0.551-1.651-0.551h-2.575V44.202z"/>
	<path fill="#918B88" d="M146.51,45.809V31.494c0-0.235,0.091-0.44,0.273-0.617s0.41-0.264,0.684-0.264h4.511
		c3.601,0,5.4,1.535,5.4,4.603c0,1.204-0.27,2.173-0.809,2.907c-0.539,0.735-1.265,1.233-2.176,1.498l2.985,5.352
		c0.076,0.088,0.114,0.206,0.114,0.353c0,0.367-0.198,0.708-0.592,1.024c-0.395,0.316-0.813,0.474-1.253,0.474
		s-0.782-0.228-1.025-0.683l-3.236-6.079h-1.914v5.748c0,0.279-0.145,0.5-0.433,0.661c-0.288,0.162-0.638,0.243-1.048,0.243
		c-0.396,0-0.741-0.081-1.037-0.243C146.658,46.309,146.51,46.088,146.51,45.809z M149.472,37.814h2.506
		c1.625,0,2.438-0.778,2.438-2.334c0-1.571-0.813-2.356-2.438-2.356h-2.506V37.814z"/>
</g>
</svg>
