<?xml version="1.0" encoding="utf-8"?>
<!-- Generator: Adobe Illustrator 14.0.0, SVG Export Plug-In  -->
<!DOCTYPE svg PUBLIC "-//W3C//DTD SVG 1.1//EN" "http://www.w3.org/Graphics/SVG/1.1/DTD/svg11.dtd" [
	<!ENTITY ns_flows "http://ns.adobe.com/Flows/1.0/">
]>
<svg version="1.1"
	 xmlns="http://www.w3.org/2000/svg" xmlns:xlink="http://www.w3.org/1999/xlink" xmlns:a="http://ns.adobe.com/AdobeSVGViewerExtensions/3.0/"
	 x="0px" y="0px" width="279px" height="101px" viewBox="0 0 279 101" enable-background="new 0 0 279 101" xml:space="preserve">
<defs>
</defs>
<ellipse fill="#E9E9E9" cx="49.825" cy="50.319" rx="49.825" ry="50.318"/>
<ellipse fill="#FFFFFF" cx="50.136" cy="50.486" rx="43" ry="43.425"/>
<path fill="#808080" d="M75.093,35.906c-2.114-2.189-4.924-3.395-7.914-3.395c-2.99,0-5.801,1.206-7.915,3.395l-7.856,8.138
	l3.393,3.513l7.856-8.137c1.208-1.251,2.813-1.941,4.523-1.941c1.707,0,3.314,0.689,4.521,1.941
	c2.494,2.582,2.493,6.784-0.001,9.366l-9.059,9.385c0.604,2.282,0.615,4.695,0.04,6.984l12.412-12.855
	c2.113-2.189,3.278-5.1,3.278-8.197C78.371,41.007,77.206,38.096,75.093,35.906z"/>
<path fill="#808080" d="M44.029,63.701c-0.185-0.623-0.283-1.279-0.283-1.951c0-1.77,0.666-3.432,1.874-4.684l3.244-3.358
	l-3.393-3.514l-2.263,2.343c-0.292,0.374-0.597,0.737-0.93,1.082c-0.196,0.203-0.406,0.387-0.613,0.575
	c-1.751,2.103-2.716,4.75-2.717,7.556c0,1.635,0.333,3.213,0.951,4.666c0.622-1.597,2.13-2.728,3.892-2.728
	C43.872,63.688,43.951,63.697,44.029,63.701z"/>
<path fill="#808080" d="M41.007,35.907c-2.114-2.191-4.924-3.396-7.914-3.396s-5.8,1.205-7.913,3.395
	c-4.364,4.52-4.364,11.875,0,16.395c2.113,2.19,4.925,3.395,7.913,3.395c2.99,0,5.8-1.206,7.914-3.395
	c1.642-1.699,2.71-3.834,3.106-6.151l10.538,10.916c2.493,2.583,2.493,6.785,0,9.367c-1.207,1.252-2.813,1.94-4.521,1.94
	c-1.704,0-3.307-0.687-4.514-1.933c-0.441-0.539-1.091-0.889-1.824-0.889c-1.325,0-2.399,1.113-2.399,2.485
	c0,0.757,0.307,1.454,0.822,1.909c2.114,2.19,4.925,3.396,7.914,3.396h0.001c2.989,0,5.8-1.205,7.913-3.395
	c4.365-4.52,4.365-11.875,0-16.395L41.007,35.907z M37.615,48.787c-1.208,1.252-2.813,1.941-4.522,1.941
	c-1.708,0-3.313-0.689-4.521-1.941c-2.494-2.582-2.494-6.785,0-9.367c1.208-1.251,2.812-1.94,4.521-1.94s3.314,0.689,4.522,1.941
	c1.208,1.251,1.873,2.914,1.873,4.683C39.488,45.873,38.824,47.536,37.615,48.787z"/>
<path fill="#808080" d="M123.278,38.277h8.008c0.398,0,0.698,0.013,0.897,0.039s0.429,0.108,0.689,0.247
	c0.468,0.243,0.702,0.919,0.702,2.028c0,1.213-0.321,1.924-0.962,2.132c-0.295,0.104-0.746,0.156-1.352,0.156h-10.296
	c-1.213,0-1.924-0.329-2.132-0.988c-0.104-0.277-0.156-0.719-0.156-1.326V26.109c0-0.884,0.165-1.486,0.494-1.807
	c0.329-0.32,0.953-0.481,1.872-0.481h10.244c0.398,0,0.698,0.013,0.897,0.039s0.429,0.108,0.689,0.247
	c0.468,0.243,0.702,0.919,0.702,2.028c0,1.213-0.321,1.924-0.962,2.132c-0.295,0.104-0.746,0.156-1.352,0.156h-7.982v2.626h5.148
	c0.398,0,0.697,0.013,0.897,0.039c0.199,0.026,0.429,0.108,0.689,0.247c0.468,0.243,0.702,0.919,0.702,2.028
	c0,1.213-0.33,1.924-0.988,2.132c-0.295,0.104-0.745,0.156-1.352,0.156h-5.096V38.277z"/>
<path fill="#808080" d="M147.718,24.523c0.173-0.277,0.424-0.468,0.754-0.572c0.329-0.104,0.741-0.156,1.235-0.156
	s0.888,0.043,1.183,0.13c0.294,0.087,0.52,0.191,0.676,0.312c0.156,0.122,0.269,0.304,0.338,0.546
	c0.104,0.295,0.156,0.746,0.156,1.352v7.852c0,2.288-0.711,4.368-2.132,6.24c-0.693,0.884-1.586,1.599-2.678,2.145
	c-1.092,0.546-2.301,0.819-3.627,0.819c-1.326,0-2.531-0.277-3.614-0.832c-1.083-0.555-1.963-1.283-2.639-2.184
	c-1.404-1.837-2.106-3.917-2.106-6.24v-7.826c0-0.416,0.013-0.724,0.039-0.923s0.108-0.429,0.247-0.689
	c0.138-0.26,0.373-0.442,0.702-0.546s0.771-0.156,1.326-0.156c0.555,0,0.997,0.052,1.326,0.156c0.329,0.104,0.554,0.286,0.676,0.546
	c0.208,0.399,0.312,0.945,0.312,1.638v7.8c0,1.057,0.26,2.063,0.78,3.016c0.26,0.486,0.65,0.875,1.17,1.17s1.135,0.442,1.846,0.442
	c1.265,0,2.21-0.468,2.834-1.404c0.624-0.936,0.936-2.019,0.936-3.25v-7.956C147.458,25.277,147.544,24.8,147.718,24.523z"/>
<path fill="#808080" d="M168.726,39.655c0.26,0.624,0.39,1.075,0.39,1.352c0,0.659-0.538,1.213-1.612,1.664
	c-0.555,0.243-1.001,0.364-1.339,0.364s-0.615-0.082-0.832-0.247s-0.377-0.333-0.481-0.507c-0.173-0.329-0.85-1.898-2.028-4.706
	l-0.806,0.052h-3.276v2.938c0,0.399-0.013,0.698-0.039,0.897s-0.108,0.429-0.247,0.689c-0.243,0.468-0.919,0.702-2.028,0.702
	c-1.213,0-1.924-0.321-2.132-0.962c-0.104-0.295-0.156-0.745-0.156-1.352v-14.43c0-0.398,0.013-0.698,0.039-0.897
	s0.108-0.429,0.247-0.689c0.242-0.468,0.918-0.702,2.028-0.702h5.616c1.525,0,3.007,0.555,4.446,1.664
	c0.693,0.538,1.265,1.266,1.716,2.184c0.451,0.919,0.676,1.941,0.676,3.068c0,1.959-0.65,3.571-1.95,4.836
	C167.339,36.492,167.928,37.853,168.726,39.655z M158.742,33.025h3.328c0.502,0,1.005-0.19,1.508-0.572
	c0.502-0.381,0.754-0.953,0.754-1.716c0-0.762-0.251-1.339-0.754-1.729c-0.503-0.39-1.023-0.585-1.56-0.585h-3.276V33.025z"/>
<path fill="#808080" d="M179.229,23.587c2.565,0,4.792,0.927,6.682,2.782c1.889,1.854,2.834,4.156,2.834,6.903
	c0,2.748-0.901,5.087-2.704,7.02s-4.021,2.899-6.656,2.899c-2.635,0-4.875-0.953-6.721-2.86c-1.846-1.907-2.769-4.177-2.769-6.812
	c0-1.438,0.26-2.786,0.78-4.043s1.213-2.31,2.08-3.159c0.867-0.849,1.863-1.517,2.99-2.002
	C176.872,23.83,178.034,23.587,179.229,23.587z M174.498,33.389c0,1.543,0.498,2.795,1.495,3.757
	c0.997,0.962,2.11,1.443,3.341,1.443c1.23,0,2.34-0.468,3.328-1.404s1.482-2.193,1.482-3.77s-0.499-2.843-1.495-3.796
	s-2.11-1.43-3.341-1.43c-1.231,0-2.34,0.481-3.328,1.443C174.992,30.594,174.498,31.846,174.498,33.389z"/>
<path fill="#808080" d="M192.75,23.795l4.81,0.026c2.513,0,4.723,0.906,6.629,2.717c1.906,1.812,2.861,4.039,2.861,6.682
	c0,2.644-0.934,4.91-2.795,6.799c-1.864,1.889-4.122,2.834-6.774,2.834h-4.758c-1.058,0-1.716-0.217-1.976-0.65
	c-0.208-0.364-0.312-0.919-0.312-1.664V26.083c0-0.416,0.013-0.719,0.039-0.91c0.026-0.19,0.108-0.416,0.247-0.676
	C190.964,24.029,191.64,23.795,192.75,23.795z M200.939,36.86c1.005-0.927,1.507-2.093,1.507-3.497c0-1.404-0.489-2.578-1.468-3.523
	c-0.979-0.944-2.128-1.417-3.445-1.417h-2.496v9.828h2.522C198.808,38.251,199.934,37.788,200.939,36.86z"/>
<path fill="#808080" d="M218.438,25.173l7.02,14.508c0.295,0.59,0.442,1.032,0.442,1.326c0,0.624-0.503,1.188-1.508,1.69
	c-0.59,0.294-1.053,0.442-1.392,0.442c-0.338,0-0.615-0.078-0.832-0.234c-0.217-0.156-0.372-0.32-0.468-0.494
	s-0.229-0.433-0.402-0.78l-1.353-2.808h-7.202l-1.352,2.808c-0.174,0.347-0.309,0.598-0.403,0.754
	c-0.096,0.156-0.251,0.316-0.468,0.481s-0.494,0.247-0.832,0.247s-0.802-0.147-1.391-0.442c-1.006-0.485-1.509-1.04-1.509-1.664
	c0-0.294,0.147-0.736,0.442-1.326l7.02-14.534c0.191-0.398,0.481-0.719,0.871-0.962c0.391-0.243,0.802-0.364,1.235-0.364
	C217.293,23.821,217.987,24.272,218.438,25.173z M216.332,31.413l-1.716,3.562h3.458L216.332,31.413z"/>
<path fill="#808080" d="M239.64,24.614c0.165-0.303,0.412-0.507,0.741-0.611s0.741-0.156,1.235-0.156s0.893,0.043,1.196,0.13
	c0.303,0.087,0.528,0.191,0.676,0.312c0.146,0.121,0.255,0.303,0.325,0.546c0.104,0.277,0.155,0.719,0.155,1.326v14.43
	c0,0.416-0.013,0.72-0.039,0.91c-0.025,0.191-0.108,0.416-0.247,0.676c-0.242,0.468-0.919,0.702-2.027,0.702
	c-0.676,0-1.145-0.052-1.404-0.156s-0.477-0.269-0.65-0.494c-3.899-5.2-6.465-8.597-7.695-10.192v8.554
	c0,0.416-0.014,0.72-0.039,0.91c-0.026,0.191-0.108,0.416-0.247,0.676c-0.243,0.468-0.919,0.702-2.028,0.702
	c-1.074,0-1.733-0.234-1.976-0.702c-0.139-0.26-0.221-0.494-0.247-0.702s-0.039-0.511-0.039-0.91V26.057
	c0-0.659,0.082-1.14,0.247-1.443c0.164-0.303,0.411-0.507,0.741-0.611c0.329-0.104,0.754-0.156,1.273-0.156
	c0.521,0,0.932,0.048,1.235,0.143c0.303,0.096,0.516,0.204,0.637,0.325c0.069,0.052,0.269,0.277,0.599,0.676
	c3.656,4.975,6.101,8.26,7.331,9.854v-8.788C239.393,25.398,239.476,24.917,239.64,24.614z"/>
<path fill="#808080" d="M257.958,37.887l0.468-0.338c0.589-0.347,1.005-0.52,1.248-0.52c0.537,0,1.118,0.485,1.742,1.456
	c0.381,0.607,0.571,1.092,0.571,1.456s-0.116,0.667-0.351,0.91s-0.507,0.459-0.819,0.65c-0.312,0.191-0.61,0.373-0.896,0.546
	c-0.286,0.173-0.871,0.399-1.755,0.676c-0.884,0.277-1.738,0.416-2.562,0.416s-1.655-0.108-2.496-0.325
	c-0.841-0.217-1.707-0.581-2.6-1.092c-0.893-0.511-1.694-1.135-2.405-1.872s-1.296-1.681-1.755-2.834s-0.688-2.405-0.688-3.757
	s0.225-2.578,0.676-3.679c0.45-1.101,1.026-2.011,1.729-2.73s1.504-1.322,2.405-1.807c1.698-0.936,3.406-1.404,5.122-1.404
	c0.814,0,1.642,0.126,2.483,0.377c0.84,0.251,1.478,0.507,1.91,0.767l0.624,0.364c0.312,0.191,0.555,0.347,0.729,0.468
	c0.45,0.364,0.676,0.776,0.676,1.235s-0.182,0.94-0.546,1.443c-0.676,0.936-1.283,1.404-1.82,1.404c-0.312,0-0.754-0.19-1.326-0.572
	c-0.728-0.589-1.698-0.884-2.911-0.884c-1.127,0-2.236,0.39-3.328,1.17c-0.521,0.381-0.954,0.919-1.3,1.612
	c-0.348,0.693-0.521,1.478-0.521,2.353c0,0.875,0.173,1.66,0.521,2.353c0.346,0.693,0.788,1.239,1.325,1.638
	c1.058,0.763,2.158,1.144,3.303,1.144c0.537,0,1.044-0.069,1.521-0.208C257.407,38.165,257.75,38.026,257.958,37.887z"/>
<path fill="#808080" d="M268.304,38.277h8.009c0.398,0,0.697,0.013,0.896,0.039s0.429,0.108,0.689,0.247
	c0.468,0.243,0.702,0.919,0.702,2.028c0,1.213-0.321,1.924-0.963,2.132c-0.295,0.104-0.745,0.156-1.352,0.156h-10.296
	c-1.214,0-1.924-0.329-2.132-0.988c-0.104-0.277-0.156-0.719-0.156-1.326V26.109c0-0.884,0.164-1.486,0.494-1.807
	c0.329-0.32,0.953-0.481,1.872-0.481h10.244c0.398,0,0.697,0.013,0.896,0.039s0.429,0.108,0.689,0.247
	c0.468,0.243,0.702,0.919,0.702,2.028c0,1.213-0.321,1.924-0.963,2.132c-0.295,0.104-0.745,0.156-1.352,0.156h-7.982v2.626h5.148
	c0.398,0,0.697,0.013,0.896,0.039s0.43,0.108,0.689,0.247c0.468,0.243,0.702,0.919,0.702,2.028c0,1.213-0.33,1.924-0.988,2.132
	c-0.295,0.104-0.745,0.156-1.352,0.156h-5.097V38.277z"/>
<path fill="#808080" d="M122.706,69.789c0.295,0.295,0.442,0.901,0.442,1.82v0.104c0,0.416-0.013,0.724-0.039,0.923
	c-0.026,0.199-0.117,0.438-0.273,0.715c-0.26,0.503-0.915,0.754-1.963,0.754s-1.742-0.165-2.08-0.494
	c-0.338-0.329-0.507-0.953-0.507-1.872v-0.104c0-0.399,0.013-0.702,0.039-0.91s0.108-0.442,0.247-0.702
	c0.26-0.52,0.914-0.78,1.963-0.78S122.307,69.425,122.706,69.789z"/>
<path fill="#808080" d="M136.747,69.087l0.468-0.338c0.589-0.347,1.005-0.52,1.248-0.52c0.537,0,1.118,0.485,1.742,1.456
	c0.381,0.607,0.572,1.092,0.572,1.456s-0.117,0.667-0.351,0.91s-0.507,0.459-0.819,0.65c-0.312,0.191-0.611,0.373-0.897,0.546
	c-0.286,0.173-0.871,0.399-1.755,0.676c-0.884,0.277-1.738,0.416-2.561,0.416c-0.824,0-1.656-0.108-2.496-0.325
	c-0.841-0.217-1.708-0.581-2.6-1.092c-0.893-0.511-1.694-1.135-2.405-1.872c-0.711-0.737-1.296-1.681-1.755-2.834
	c-0.459-1.153-0.689-2.405-0.689-3.757s0.225-2.578,0.676-3.679c0.45-1.101,1.027-2.011,1.729-2.73
	c0.702-0.719,1.503-1.322,2.405-1.807c1.699-0.936,3.406-1.404,5.122-1.404c0.814,0,1.642,0.126,2.483,0.377
	s1.478,0.507,1.911,0.767l0.624,0.364c0.312,0.191,0.554,0.347,0.728,0.468c0.45,0.364,0.676,0.776,0.676,1.235
	s-0.182,0.94-0.546,1.443c-0.676,0.936-1.283,1.404-1.82,1.404c-0.312,0-0.754-0.19-1.326-0.572
	c-0.728-0.589-1.699-0.884-2.912-0.884c-1.127,0-2.236,0.39-3.328,1.17c-0.52,0.381-0.953,0.919-1.3,1.612
	c-0.347,0.693-0.52,1.478-0.52,2.353c0,0.875,0.173,1.66,0.52,2.353s0.789,1.239,1.326,1.638c1.057,0.763,2.158,1.144,3.302,1.144
	c0.537,0,1.044-0.069,1.521-0.208C136.196,69.365,136.539,69.226,136.747,69.087z"/>
<path fill="#808080" d="M151.436,54.787c2.565,0,4.792,0.927,6.682,2.782c1.889,1.854,2.834,4.156,2.834,6.903
	c0,2.748-0.901,5.087-2.704,7.02s-4.021,2.899-6.656,2.899c-2.635,0-4.875-0.953-6.721-2.86c-1.846-1.907-2.769-4.177-2.769-6.812
	c0-1.438,0.26-2.786,0.78-4.043s1.213-2.31,2.08-3.159c0.867-0.849,1.863-1.517,2.99-2.002
	C149.079,55.03,150.24,54.787,151.436,54.787z M146.704,64.589c0,1.543,0.498,2.795,1.495,3.757c0.997,0.962,2.11,1.443,3.341,1.443
	c1.23,0,2.34-0.468,3.328-1.404s1.482-2.193,1.482-3.77s-0.499-2.843-1.495-3.796s-2.11-1.43-3.341-1.43
	c-1.231,0-2.34,0.481-3.328,1.443C147.198,61.794,146.704,63.046,146.704,64.589z"/>
<path fill="#808080" d="M182.896,55.749c0.139,0.26,0.221,0.494,0.247,0.702s0.039,0.511,0.039,0.91v14.43
	c0,1.196-0.33,1.898-0.988,2.106c-0.329,0.104-0.745,0.156-1.248,0.156c-0.503,0-0.902-0.043-1.196-0.13
	c-0.295-0.087-0.52-0.191-0.676-0.312c-0.156-0.121-0.278-0.295-0.364-0.52c-0.087-0.295-0.13-0.745-0.13-1.352v-8.71
	c-0.434,0.537-1.066,1.391-1.898,2.561c-0.832,1.17-1.361,1.902-1.586,2.197c-0.226,0.295-0.382,0.499-0.468,0.611
	c-0.087,0.113-0.299,0.269-0.637,0.468c-0.338,0.199-0.702,0.299-1.092,0.299c-0.39,0-0.745-0.091-1.066-0.273
	s-0.55-0.359-0.689-0.533l-0.208-0.286c-0.347-0.433-1.031-1.356-2.054-2.769s-1.577-2.171-1.664-2.275v8.762
	c0,0.399-0.013,0.698-0.039,0.897c-0.026,0.2-0.108,0.42-0.247,0.663c-0.26,0.468-0.936,0.702-2.028,0.702
	c-1.057,0-1.716-0.234-1.976-0.702c-0.139-0.243-0.221-0.468-0.247-0.676s-0.039-0.52-0.039-0.936v-14.43
	c0-0.398,0.013-0.698,0.039-0.897s0.108-0.429,0.247-0.689c0.26-0.451,0.936-0.676,2.028-0.676c0.468,0,0.871,0.057,1.209,0.169
	s0.559,0.229,0.663,0.351l0.156,0.156l5.902,7.748c2.946-3.9,4.914-6.474,5.902-7.722c0.294-0.468,0.992-0.702,2.093-0.702
	S182.653,55.281,182.896,55.749z"/>
<path fill="#808080" d="M189.292,69.789c0.295,0.295,0.442,0.901,0.442,1.82v0.104c0,0.416-0.013,0.724-0.039,0.923
	c-0.026,0.199-0.117,0.438-0.273,0.715c-0.26,0.503-0.915,0.754-1.963,0.754s-1.742-0.165-2.08-0.494
	c-0.338-0.329-0.507-0.953-0.507-1.872v-0.104c0-0.399,0.013-0.702,0.039-0.91s0.108-0.442,0.247-0.702
	c0.26-0.52,0.914-0.78,1.963-0.78S188.893,69.425,189.292,69.789z"/>
<path fill="#808080" d="M204.997,63.861c1.022,1.213,1.534,2.574,1.534,4.082c-0.035,1.734-0.629,3.185-1.781,4.355
	c-1.153,1.17-2.553,1.755-4.199,1.755h-6.838c-1.213,0-1.924-0.329-2.132-0.988c-0.104-0.294-0.156-0.745-0.156-1.352v-14.43
	c0-0.416,0.013-0.719,0.039-0.91c0.026-0.19,0.108-0.416,0.247-0.676c0.242-0.468,0.918-0.702,2.028-0.702h6.552
	c1.594,0,2.929,0.555,4.004,1.664c1.126,1.127,1.689,2.479,1.689,4.056C205.984,61.859,205.655,62.908,204.997,63.861z
	 M201.928,67.683c0-0.416-0.048-0.745-0.144-0.988c-0.095-0.243-0.255-0.416-0.48-0.52c-0.347-0.139-0.832-0.208-1.456-0.208
	s-1.092-0.121-1.404-0.364c-0.312-0.243-0.468-0.741-0.468-1.495c0-0.754,0.16-1.252,0.481-1.495
	c0.32-0.243,0.854-0.364,1.599-0.364c0.693,0,1.109-0.182,1.248-0.546c0.052-0.19,0.078-0.502,0.078-0.936
	c0-0.433-0.143-0.736-0.429-0.91c-0.286-0.173-0.715-0.26-1.287-0.26h-3.64v9.854h4.264
	C201.382,69.451,201.928,68.862,201.928,67.683z"/>
<path fill="#808080" d="M222.806,70.855c0.26,0.624,0.39,1.075,0.39,1.352c0,0.659-0.537,1.213-1.611,1.664
	c-0.556,0.243-1.001,0.364-1.339,0.364c-0.339,0-0.616-0.082-0.832-0.247c-0.218-0.165-0.377-0.333-0.481-0.507
	c-0.174-0.329-0.85-1.898-2.028-4.706l-0.806,0.052h-3.276v2.938c0,0.399-0.013,0.698-0.039,0.897
	c-0.025,0.199-0.108,0.429-0.246,0.689c-0.243,0.468-0.919,0.702-2.028,0.702c-1.214,0-1.924-0.321-2.132-0.962
	c-0.104-0.295-0.156-0.745-0.156-1.352v-14.43c0-0.398,0.013-0.698,0.039-0.897s0.108-0.429,0.247-0.689
	c0.242-0.468,0.918-0.702,2.027-0.702h5.616c1.525,0,3.008,0.555,4.446,1.664c0.693,0.538,1.265,1.266,1.716,2.184
	c0.451,0.919,0.676,1.941,0.676,3.068c0,1.959-0.649,3.571-1.949,4.836C221.419,67.692,222.008,69.053,222.806,70.855z
	 M212.822,64.225h3.328c0.503,0,1.005-0.19,1.508-0.572s0.755-0.953,0.755-1.716c0-0.762-0.252-1.339-0.755-1.729
	s-1.022-0.585-1.56-0.585h-3.276V64.225z"/>
</svg>
