<?xml version="1.0" encoding="utf-8"?>
<!-- Generator: Adobe Illustrator 14.0.0, SVG Export Plug-In . SVG Version: 6.00 Build 43363)  -->
<!DOCTYPE svg PUBLIC "-//W3C//DTD SVG 1.1//EN" "http://www.w3.org/Graphics/SVG/1.1/DTD/svg11.dtd">
<svg version="1.1" id="Layer_1" xmlns:sketch="http://www.bohemiancoding.com/sketch/ns"
	 xmlns="http://www.w3.org/2000/svg" xmlns:xlink="http://www.w3.org/1999/xlink" x="0px" y="0px" width="16px" height="16px"
	 viewBox="0 0 16 16" enable-background="new 0 0 16 16" xml:space="preserve">
<title></title>
<description></description>
<g id="Icons_with_numbers">
	<g id="Group" transform="translate(-240.000000, -336.000000)">
		<path id="Oval_205" fill="#7C7C7C" d="M248,352c-4.418,0-8-3.582-8-8c0-4.418,3.582-8,8-8c4.418,0,8,3.582,8,8
			C256,348.418,252.418,352,248,352z M248,346c-1.104,0-2-0.896-2-2s0.896-2,2-2s2,0.896,2,2S249.104,346,248,346z M248,347
			c1.656,0,3-1.344,3-3c0-1.657-1.344-3-3-3c-1.657,0-3,1.343-3,3C245,345.656,246.343,347,248,347z M248,345c0.553,0,1-0.447,1-1
			c0-0.552-0.447-1-1-1c-0.552,0-1,0.448-1,1C247,344.553,247.448,345,248,345z"/>
	</g>
</g>
</svg>
